# xmcd
#
# Track frame offsets:
#	150
#	12289
#	24425
#	38911
#	53908
#	67385
#	79309
#	96376
#	107159
#	119026
#
# Disc length: 1764 seconds
#
# Revision: 0
# Processed by: cddbd v1.5.2PL0 Copyright (c) Steve Scherf et al.
# Submitted via: EasyCDDAExtractor 9.1.3.1
#
DISCID=8e06e20a
DTITLE=John Anderson - All the People Are Talkin'
DYEAR=1981
DGENRE=Country
TTITLE0=All the People Are Talkin'
TTITLE1=Blue Lights and Bubbles
TTITLE2=Haunted House
TTITLE3=Look What Followed Me Home
TTITLE4=Black Sheep
TTITLE5=Let Somebody Else Drive
TTITLE6=An Occasional Eagle
TTITLE7=Things Ain't Been the Same Around the Farm
TTITLE8=Call on Me
TTITLE9=Old Mexico
EXTD=
EXTT0=
EXTT1=
EXTT2=
EXTT3=
EXTT4=
EXTT5=
EXTT6=
EXTT7=
EXTT8=
EXTT9=
PLAYORDER=
